<svg width="46" height="45" viewBox="0 0 46 45" fill="none" xmlns="http://www.w3.org/2000/svg">
<g clip-path="url(#clip0_1253_397)">
<path d="M23.0021 8.94102e-07C16.8914 8.94102e-07 16.1245 0.0267193 13.7245 0.135939C11.3292 0.245626 9.69416 0.624845 8.26352 1.18125C6.78366 1.75594 5.52833 2.52469 4.27769 3.77578C3.02612 5.02641 2.25736 6.28172 1.68079 7.76109C1.12297 9.19219 0.743282 10.8277 0.635469 13.222C0.528125 15.622 0.5 16.3894 0.5 22.5C0.5 28.6106 0.527188 29.3752 0.635939 31.7752C0.746097 34.1705 1.12532 35.8055 1.68126 37.2361C2.25642 38.7159 3.02518 39.9712 4.27629 41.2219C5.52646 42.4734 6.78178 43.2441 8.26071 43.8188C9.69228 44.3752 11.3278 44.7544 13.7226 44.8641C16.1227 44.9733 16.8891 45 22.9993 45C29.1105 45 29.875 44.9733 32.275 44.8641C34.6704 44.7544 36.3072 44.3752 37.7388 43.8188C39.2182 43.2441 40.4717 42.4734 41.7218 41.2219C42.9734 39.9712 43.7422 38.7159 44.3187 37.2366C44.8719 35.8055 45.2516 34.17 45.3641 31.7756C45.4719 29.3756 45.5 28.6106 45.5 22.5C45.5 16.3894 45.4719 15.6225 45.3641 13.2225C45.2516 10.8272 44.8719 9.19219 44.3187 7.76156C43.7422 6.28172 42.9734 5.02641 41.7218 3.77578C40.4703 2.52422 39.2187 1.75547 37.7374 1.18125C36.303 0.624844 34.6671 0.245625 32.2717 0.135938C29.8717 0.0267193 29.1076 0 22.9951 0L23.0021 8.94102e-07ZM20.9836 4.05469C21.5827 4.05375 22.2512 4.05469 23.0021 4.05469C29.0097 4.05469 29.7217 4.07625 32.0941 4.18406C34.2878 4.28438 35.4785 4.65094 36.2716 4.95891C37.3216 5.36672 38.0702 5.85422 38.8573 6.64172C39.6448 7.42922 40.1323 8.17922 40.541 9.22922C40.849 10.0214 41.216 11.212 41.3159 13.4058C41.4237 15.7777 41.4471 16.4902 41.4471 22.4948C41.4471 28.4995 41.4237 29.212 41.3159 31.5839C41.2156 33.7777 40.849 34.9683 40.541 35.7605C40.1332 36.8105 39.6448 37.5581 38.8573 38.3452C38.0698 39.1327 37.3221 39.6202 36.2716 40.028C35.4794 40.3373 34.2878 40.703 32.0941 40.8033C29.7222 40.9111 29.0097 40.9345 23.0021 40.9345C16.9941 40.9345 16.282 40.9111 13.9101 40.8033C11.7164 40.702 10.5257 40.3355 9.73213 40.0275C8.68212 39.6197 7.93211 39.1322 7.1446 38.3447C6.35709 37.5572 5.86959 36.8091 5.46083 35.7586C5.15286 34.9664 4.78583 33.7758 4.68598 31.582C4.57817 29.2102 4.55661 28.4977 4.55661 22.4892C4.55661 16.4808 4.57817 15.772 4.68598 13.4002C4.7863 11.2064 5.15286 10.0158 5.46083 9.22266C5.86865 8.17266 6.35709 7.42266 7.1446 6.63516C7.93211 5.84766 8.68212 5.36016 9.73213 4.95141C10.5253 4.64203 11.7164 4.27641 13.9101 4.17563C15.9858 4.08187 16.7902 4.05375 20.9837 4.04906L20.9836 4.05469ZM35.0125 7.79062C33.5219 7.79062 32.3125 8.99859 32.3125 10.4897C32.3125 11.9803 33.5219 13.1897 35.0125 13.1897C36.5032 13.1897 37.7126 11.9803 37.7126 10.4897C37.7126 8.99906 36.5032 7.78969 35.0125 7.78969V7.79062ZM23.0021 10.9453C16.6209 10.9453 11.4473 16.1189 11.4473 22.5C11.4473 28.8811 16.6209 34.0523 23.0021 34.0523C29.3833 34.0523 34.555 28.8811 34.555 22.5C34.555 16.1189 29.3828 10.9453 23.0016 10.9453H23.0021ZM23.0021 15C27.144 15 30.5022 18.3577 30.5022 22.5C30.5022 26.6419 27.144 30 23.0021 30C18.8597 30 15.502 26.6419 15.502 22.5C15.502 18.3577 18.8597 15 23.0021 15Z" fill="#FCF8F8"/>
</g>
<defs>
<clipPath id="clip0_1253_397">
<rect width="45" height="45" fill="white" transform="translate(0.5)"/>
</clipPath>
</defs>
</svg>
