<svg width="676" height="151" viewBox="0 0 676 151" fill="none" xmlns="http://www.w3.org/2000/svg">
<path d="M0.5 6.55371H108.06V34.8718H31.583V64.9841H98.9816V93.2866H31.583V148.082H0.5V6.55371Z" fill="white"/>
<path d="M115.528 0.5H147.81V27.7883H115.528V0.5ZM116.338 39.724H147V148.082H116.338V39.724Z" fill="white"/>
<path d="M161.13 39.7241H191.809V55.0767C193.553 52.791 195.468 50.5989 197.555 48.5082C199.642 46.4175 201.962 44.5686 204.516 42.9538C207.07 41.3311 209.892 40.0517 212.987 39.1156C216.079 38.1717 219.578 37.6958 223.483 37.6958C235.194 37.6958 244.242 41.2687 250.627 48.4145C257.019 55.5526 260.219 65.3898 260.219 77.934V148.082H229.541V87.6386C229.541 80.3601 227.925 74.8682 224.698 71.1626C221.467 67.4493 216.896 65.5926 210.978 65.5926C205.061 65.5926 200.381 67.4493 196.948 71.1626C193.522 74.8682 191.809 80.3601 191.809 87.6386V148.082H161.13V39.7241Z" fill="white"/>
<path d="M316.512 150.11C310.19 150.11 304.07 148.897 298.152 146.475C292.234 144.041 286.986 140.433 282.408 135.647C277.83 130.865 274.158 125.002 271.398 118.063C268.646 111.116 267.271 103.128 267.271 94.0979V93.6922C267.271 84.6663 268.646 76.6819 271.398 69.7428C274.158 62.7959 277.791 56.9294 282.299 52.1434C286.815 47.3614 292.032 43.7572 297.95 41.3311C303.867 38.9088 310.054 37.6958 316.512 37.6958C324.711 37.6958 331.47 39.3145 336.788 42.5481C342.102 45.7855 346.575 49.5613 350.212 53.8753V0.5H380.89V148.082H350.212V132.511C346.443 137.64 341.9 141.856 336.585 145.164C331.267 148.46 324.579 150.11 316.512 150.11ZM324.376 124.023C328.009 124.023 331.404 123.317 334.561 121.901C337.726 120.489 340.486 118.469 342.846 115.847C345.201 113.218 347.085 110.051 348.499 106.346C349.908 102.632 350.616 98.5523 350.616 94.0979V93.6922C350.616 89.2534 349.908 85.1812 348.499 81.4757C347.085 77.7623 345.201 74.5951 342.846 71.9739C340.486 69.3449 337.726 67.3205 334.561 65.9046C331.404 64.4926 328.009 63.7827 324.376 63.7827C320.74 63.7827 317.342 64.4926 314.176 65.9046C311.019 67.3205 308.232 69.3449 305.814 71.9739C303.392 74.5951 301.477 77.7272 300.068 81.3664C298.654 85.0096 297.95 89.1169 297.95 93.6922V94.0979C297.95 98.5523 298.654 102.632 300.068 106.346C301.477 110.051 303.392 113.218 305.814 115.847C308.232 118.469 311.019 120.489 314.176 121.901C317.342 123.317 320.74 124.023 324.376 124.023Z" fill="white"/>
<path d="M446.665 150.5C438.326 150.5 430.594 149.053 423.462 146.163C416.329 143.261 410.17 139.282 404.992 134.227C399.811 129.172 395.742 123.243 392.783 116.44C389.825 109.638 388.345 102.328 388.345 94.5036V94.0979C388.345 86.289 389.825 78.9794 392.783 72.1768C395.742 65.3664 399.842 59.3985 405.086 54.281C410.338 49.1557 416.532 45.1069 423.664 42.1424C430.796 39.178 438.598 37.6958 447.07 37.6958C455.405 37.6958 463.141 39.1468 470.273 42.0488C477.405 44.943 483.56 48.9138 488.742 53.9689C493.92 59.0241 497.992 64.9607 500.951 71.7711C503.91 78.5737 505.389 85.8834 505.389 93.6923V94.0979C505.389 101.922 503.91 109.24 500.951 116.05C497.992 122.853 493.885 128.813 488.633 133.93C483.389 139.048 477.203 143.089 470.071 146.053C462.938 149.018 455.136 150.5 446.665 150.5ZM447.07 124.023C451.512 124.023 455.448 123.251 458.874 121.698C462.3 120.15 465.22 118.028 467.641 115.333C470.071 112.641 471.924 109.509 473.201 105.94C474.478 102.363 475.116 98.5524 475.116 94.5036V94.0979C475.116 90.053 474.439 86.2461 473.092 82.6771C471.752 79.112 469.806 75.9447 467.252 73.1753C464.698 70.4098 461.669 68.2216 458.173 66.6068C454.673 64.9841 450.838 64.1728 446.665 64.1728C442.219 64.1728 438.287 64.949 434.861 66.4976C431.435 68.05 428.507 70.1758 426.078 72.8789C423.656 75.5742 421.811 78.7102 420.534 82.287C419.257 85.856 418.618 89.6591 418.618 93.6923V94.0979C418.618 98.1467 419.288 101.958 420.627 105.534C421.974 109.103 423.929 112.271 426.483 115.036C429.037 117.794 432.027 119.982 435.453 121.605C438.886 123.22 442.76 124.023 447.07 124.023Z" fill="white"/>
<path d="M512.851 39.7241H543.529V61.5516C546.62 54.1367 550.856 48.2078 556.237 43.7651C561.613 39.3145 568.882 37.2902 578.038 37.6958V69.8364H576.419C566.191 69.8364 558.152 72.9374 552.297 79.1354C546.449 85.3373 543.529 94.9717 543.529 108.046V148.082H512.851V39.7241Z" fill="white"/>
<path d="M613.147 150.11C608.028 150.11 603.216 149.4 598.711 147.988C594.203 146.564 590.271 144.439 586.907 141.607C583.544 138.779 580.884 135.311 578.934 131.2C576.98 127.093 576.006 122.338 576.006 116.94V116.55C576.006 110.613 577.081 105.488 579.23 101.181C581.387 96.8673 584.384 93.2944 588.215 90.4626C592.054 87.6347 596.628 85.5128 601.935 84.0968C607.249 82.6848 613.135 81.9749 619.594 81.9749C625.115 81.9749 629.927 82.3806 634.03 83.1919C638.13 83.9954 642.132 85.072 646.037 86.4216V84.5961C646.037 78.129 644.082 73.2065 640.181 69.8364C636.276 66.4663 630.495 64.7813 622.833 64.7813C616.916 64.7813 611.699 65.2922 607.183 66.3103C602.675 67.3205 597.937 68.7676 592.965 70.6477L585.303 47.1975C591.221 44.6388 597.407 42.5559 603.866 40.941C610.321 39.3184 618.123 38.5071 627.272 38.5071C635.743 38.5071 642.969 39.5524 648.949 41.6431C654.936 43.726 659.885 46.7217 663.79 50.63C667.827 54.6788 670.785 59.6325 672.666 65.499C674.554 71.3576 675.5 77.9262 675.5 85.2046V148.082H645.834V136.349C642.066 140.53 637.553 143.869 632.302 146.365C627.057 148.862 620.673 150.11 613.147 150.11ZM622.428 128.875C629.693 128.875 635.513 127.124 639.885 123.617C644.254 120.115 646.442 115.531 646.442 109.872V104.411C643.751 103.194 640.758 102.219 637.456 101.478C634.162 100.741 630.635 100.37 626.867 100.37C620.272 100.37 615.094 101.649 611.325 104.208C607.557 106.767 605.672 110.476 605.672 115.333V115.738C605.672 119.912 607.218 123.145 610.313 125.443C613.404 127.732 617.445 128.875 622.428 128.875Z" fill="white"/>
</svg>
