<svg width="46" height="45" viewBox="0 0 46 45" fill="none" xmlns="http://www.w3.org/2000/svg">
<g clip-path="url(#clip0_1254_403)">
<path fill-rule="evenodd" clip-rule="evenodd" d="M45.5 45H36.2539V29.2518C36.2539 24.9341 34.6133 22.5212 31.1958 22.5212C27.478 22.5212 25.5356 25.0322 25.5356 29.2518V45H16.625V15H25.5356V19.041C25.5356 19.041 28.2148 14.0835 34.5811 14.0835C40.9443 14.0835 45.5 17.9693 45.5 26.0059V45ZM5.99463 11.0717C2.95947 11.0717 0.5 8.59297 0.5 5.53587C0.5 2.47877 2.95947 0 5.99463 0C9.02978 0 11.4878 2.47877 11.4878 5.53587C11.4878 8.59297 9.02978 11.0717 5.99463 11.0717ZM1.39355 45H10.6851V15H1.39355V45Z" fill="#FCF8F8"/>
</g>
<defs>
<clipPath id="clip0_1254_403">
<rect width="45" height="45" fill="white" transform="translate(0.5)"/>
</clipPath>
</defs>
</svg>
