<svg width="46" height="33" viewBox="0 0 46 33" fill="none" xmlns="http://www.w3.org/2000/svg">
<g clip-path="url(#clip0_1257_415)">
<path d="M44.559 5.6691C44.0405 3.73183 42.5179 2.20942 40.5806 1.69084C37.0727 0.75 22.9999 0.75 22.9999 0.75C22.9999 0.75 8.92731 0.75 5.41932 1.69084C3.48196 2.20942 1.95951 3.73183 1.4409 5.6691C0.5 9.1769 0.5 16.5 0.5 16.5C0.5 16.5 0.5 23.8231 1.4409 27.331C1.95951 29.2682 3.48196 30.7906 5.41932 31.3091C8.92731 32.25 22.9999 32.25 22.9999 32.25C22.9999 32.25 37.0727 32.25 40.5806 31.3091C42.5179 30.7906 44.0405 29.2682 44.559 27.331C45.5 23.8231 45.5 16.5 45.5 16.5C45.5 16.5 45.4962 9.1769 44.559 5.6691ZM18.4957 23.2495V9.75165L30.1865 16.5006L18.4957 23.2495Z" fill="#FCF8F8"/>
</g>
<defs>
<clipPath id="clip0_1257_415">
<rect width="45" height="31.5" fill="white" transform="translate(0.5 0.75)"/>
</clipPath>
</defs>
</svg>
