<svg width="181" height="181" viewBox="0 0 181 181" fill="none" xmlns="http://www.w3.org/2000/svg">
<path d="M89.625 180.461C89.5551 180.487 89.4807 180.5 89.402 180.5C89.2403 180.496 89.0829 180.43 88.9692 180.316L54.0618 144.544C52.1031 145.689 47.215 149.397 44.4168 158.915C43.7697 162.128 42.1914 165.053 39.8698 167.314C38.2914 168.857 36.4332 170.038 34.3477 170.829C27.4178 173.452 19.2637 171.388 13.5843 165.565C6.03356 157.822 5.53075 146.013 12.4738 139.236C14.0477 137.697 15.9015 136.521 17.9827 135.73C18.3674 135.585 18.7653 135.45 19.1632 135.336L19.1719 135.332L19.2463 135.31C19.6922 135.179 20.1731 135.061 20.6847 134.96C22.0007 134.619 23.2993 134.208 24.5103 133.749C31.4533 131.121 34.4483 127.409 35.5632 125.591L0.677644 89.8398C0.437192 89.595 0.441547 89.2059 0.686405 88.9698L36.6125 53.9054C36.6737 53.8442 36.748 53.8005 36.8224 53.7698C36.9666 53.7174 37.124 53.7174 37.2683 53.7698C37.5787 53.8966 44.9021 56.9178 48.2949 70.0035C48.4042 70.5544 48.5092 71.0004 48.6316 71.3939L48.6403 71.4332C49.3442 73.8073 50.5597 75.8928 52.2561 77.6329C56.6501 82.1405 63.4139 83.4128 69.9022 80.9557C72.4774 79.9807 74.8121 78.481 76.8408 76.5005C80.3648 73.064 82.4809 68.6088 82.8001 63.9569C83.1148 59.3312 81.6108 55.0684 78.5678 51.9511C76.4823 49.8043 73.7803 48.3528 70.7548 47.7451C57.9836 43.985 55.1811 36.7186 55.0674 36.4126C54.9843 36.1808 55.0412 35.9273 55.2117 35.7567L91.1597 0.674868C91.2252 0.613692 91.2952 0.569937 91.3739 0.539349C91.4438 0.513116 91.5225 0.5 91.6012 0.5C91.763 0.504355 91.916 0.565582 92.0297 0.687984L126.819 36.3295C128.297 35.6125 133.898 32.2766 137.024 21.6567C137.671 18.4432 139.249 15.5226 141.566 13.2534C143.149 11.7101 145.007 10.5252 147.093 9.73826C154.027 7.11499 162.172 9.17867 167.861 15.0023C175.411 22.7453 175.91 34.5588 168.971 41.3312C167.384 42.8789 165.526 44.0594 163.445 44.8464C163.047 44.995 162.636 45.1349 162.225 45.253L162.194 45.2661C161.731 45.3973 161.25 45.5109 160.756 45.6071C159.444 45.9525 158.141 46.3635 156.921 46.8226C149.069 49.7956 146.236 54.2639 145.563 55.5362L180.326 91.1602C180.562 91.405 180.557 91.7941 180.317 92.0302L144.386 127.095C144.321 127.156 144.251 127.2 144.172 127.23C144.032 127.283 143.875 127.283 143.731 127.226C143.42 127.103 136.097 124.073 132.704 110.992C132.608 110.502 132.503 110.061 132.385 109.65L132.367 109.597C131.672 107.21 130.452 105.116 128.747 103.372C124.349 98.8638 117.585 97.5916 111.097 100.049C108.522 101.024 106.187 102.519 104.162 104.495C96.9091 111.578 96.1352 122.596 102.435 129.049C104.521 131.187 107.219 132.643 110.244 133.259C123.015 137.011 125.822 144.286 125.936 144.592C126.019 144.819 125.962 145.073 125.787 145.248L89.8393 180.325C89.778 180.382 89.7037 180.43 89.625 180.461Z" fill="#FCF8F8"/>
</svg>
