<?xml version="1.0" encoding="UTF-8"?>
<svg id="Livello_1" data-name="Livello 1" xmlns="http://www.w3.org/2000/svg" xmlns:xlink="http://www.w3.org/1999/xlink" viewBox="0 0 100 100">
  <defs>
    <style>
      .cls-1 {
        fill: url(#Nuovo_campione_sfumatura_1);
      }

      .cls-1, .cls-2 {
        stroke-width: 0px;
      }

      .cls-2 {
        fill: url(#Nuovo_campione_sfumatura_1-2);
      }
    </style>
    <linearGradient id="Nuovo_campione_sfumatura_1" data-name="Nuovo campione sfumatura 1" x1="-.0006103552" y1="81.451328522" x2="99.9999847411" y2="81.451328522" gradientUnits="userSpaceOnUse">
      <stop offset="0" stop-color="#1ab58a"/>
      <stop offset="1" stop-color="#0e8cad"/>
    </linearGradient>
    <linearGradient id="Nuovo_campione_sfumatura_1-2" data-name="Nuovo campione sfumatura 1" x1="0" y1="37.4516465171" x2="100.0005950963" y2="37.4516465171" xlink:href="#Nuovo_campione_sfumatura_1"/>
  </defs>
  <path class="cls-1" d="M98.537024375,91.4757717217l-28.5731070482-28.5731070482c-2.061352599,2.6285556814-4.4327046014,4.9999076838-7.0612602828,7.0612602828l28.5731070482,28.5731070482c.9743099973.9752865656,2.2529430946,1.4629603661,3.5305996236,1.4629603661s2.5562896264-.4876738005,3.5306606591-1.4629603661c1.9506341667-1.9496575984,1.9506341667-5.1116026844,0-7.0612602828Z"/>
  <path class="cls-2" d="M67.2242769999,60.1630243466c5.221965233-5.9670856214,7.6790007753-14.1700672352,7.6790007753-22.7116830071C74.9032777752,16.7753149776,58.1483562906.0131913016,37.4754427402.0000076294,16.7839743919.0131913016.0131836722,16.7839820214,0,37.4754503697c.0131836722,20.6728525148,16.7753073482,37.427835035,37.45133371,37.427835035,8.5416768075,0,16.4108032259-2.8651293549,22.7116830071-7.6790007753,0,0,5.4171456517-5.1825475113,7.0612602828-7.0612602828ZM58.92729159,58.3129156805c-.1118170717.0939336645-.2329115423.1710825611-.3380147068.2763077966-.1051642.1051031645-.1821910256.2260145286-.276002619.3377095292-5.3989579101,5.2460639338-12.7572780661,8.4859513782-20.8619405542,8.4859513782-16.5208502675,0-29.9615430451-13.4406927776-29.9615430451-29.9615430451S20.9304834425,7.4897982944,37.45133371,7.4897982944s29.9615430451,13.4406927776,29.9615430451,29.9615430451c0,8.1044793815-3.2396433023,15.4626774665-8.4855851651,20.861574341Z"/>
</svg>