<?xml version="1.0" encoding="UTF-8"?>
<svg id="Livello_1" data-name="Livello 1" xmlns="http://www.w3.org/2000/svg" xmlns:xlink="http://www.w3.org/1999/xlink" viewBox="0 0 80 100">
  <defs>
    <style>
      .cls-1 {
        fill: url(#Nuovo_campione_sfumatura_1);
        stroke-width: 0px;
      }
    </style>
    <linearGradient id="Nuovo_campione_sfumatura_1" data-name="Nuovo campione sfumatura 1" x1="0" y1="50" x2="80" y2="50" gradientUnits="userSpaceOnUse">
      <stop offset="0" stop-color="#1ab58a"/>
      <stop offset="1" stop-color="#0e8cad"/>
    </linearGradient>
  </defs>
  <path class="cls-1" d="M75,50.0723743353h-10v-25.1086224498c0-13.7870823239-11.1928710938-24.9637518855-24.9999389648-24.9637518855h-.0000610352C26.1928710938,0,15,11.1766695616,15,24.9638128324v25.1085615029H5c-2.7614135742,0-5,2.2353461017-5,4.9927625665v39.9421005318c0,2.7574164648,2.2385864258,4.9927625665,5,4.9927625665h70c2.7614135742,0,5-2.2353461017,5-4.9927625665v-39.9421005318c0-2.7574164648-2.2385864258-4.9927625665-5-4.9927625665ZM22.5,24.9638128324c0-9.6355685575,7.8505249023-17.4746689826,17.5000610352-17.4746689826,9.6494750977,0,17.4999389648,7.8391004251,17.4999389648,17.4746080358v24.9638737792H22.5v-24.9638128324ZM72.5,92.5108561503H7.5v-34.9493379653h65v34.9493379653Z"/>
</svg>