<?xml version="1.0" encoding="UTF-8"?>
<svg id="Livello_1" data-name="Livello 1" xmlns="http://www.w3.org/2000/svg" xmlns:xlink="http://www.w3.org/1999/xlink" viewBox="0 0 100 100">
  <defs>
    <style>
      .cls-1 {
        fill: url(#Nuovo_campione_sfumatura_1);
        stroke-width: 0px;
      }
    </style>
    <linearGradient id="Nuovo_campione_sfumatura_1" data-name="Nuovo campione sfumatura 1" x1="0" y1="50" x2="100" y2="50" gradientUnits="userSpaceOnUse">
      <stop offset="0" stop-color="#1ab58a"/>
      <stop offset="1" stop-color="#0e8cad"/>
    </linearGradient>
  </defs>
  <path class="cls-1" d="M50,100c-2.053419974,0-3.8978797831-1.2552258352-4.6512496594-3.1655304351l-10.1784767368-25.8074959058c-.7374763061-1.8700213574-1.182496272-2.998684569-1.5427017019-3.501712404-.3190432803-.4457523884-.7071540109-.8336433922-1.1530528838-1.1528331571-.5018559588-.3596194918-1.628688114-.8040535196-3.495193843-1.5402847073L3.1655304351,54.6511764172c-1.9103045999-.7532233918-3.1655304351-2.5977564431-3.1655304351-4.6511764172s1.255445562-3.8978797831,3.1655304351-4.6512496594l25.8076423903-10.1784767368c1.8700213574-.7374763061,2.9987578113-1.1827159987,3.5009799814-1.5423354906.4461185997-.3194094916.8343758148-.7076667067,1.1537853064-1.1537853064.3596194918-.5022221701.8048591844-1.630958624,1.5423354906-3.5009799814L45.3487503406,3.1655304351c.7533698763-1.9100848731,2.5978296854-3.1655304351,4.6512496594-3.1655304351s3.8979530253,1.2552258352,4.6511764172,3.1655304351l10.1784767368,25.8076423903c.7387214245,1.8726580788,1.1831554523,2.9994902339,1.5420425215,3.5004672856.3199221874.4467777801.7078131912.8348885106,1.1538585487,1.1540782755.502734866.3600589454,1.6313980775.8050789112,3.5012729505,1.5425552173l25.8076423903,10.1784767368c1.9103045999.7533698763,3.1655304351,2.5978296854,3.1655304351,4.6512496594s-1.2552258352,3.8979530253-3.1655304351,4.6511764172l-25.8074959058,10.1784767368c-1.8716326871.738281971-2.9992705071,1.1830089678-3.5009799814,1.542189006-.4466312955.3197757029-.8343758148.7075202222-1.1534190951,1.1531261261-.3599124609.502734866-.8046394577,1.6303726859-1.5414565835,3.4984897446l-10.179941582,25.8110115342c-.7532233918,1.9103045999-2.5977564431,3.1655304351-4.6511764172,3.1655304351ZM18.627703738,50l14.0142470842,5.5273003196c2.5899195214,1.0211435753,4.1493937006,1.6362320666,5.6554010307,2.7150905421,1.3376233766.957715779,2.5023217796,2.122414182,3.4607699812,3.4611361925,1.079297929,1.5071792062,1.6949723584,3.0682647151,2.714797573,5.6548883349l5.5270805929,14.0138808729,5.5273003196-14.0143203265c1.0204111527-2.5880884649,1.6357926131-4.1484415512,2.714797573-5.6550348194.9580087481-1.3379895879,2.1228536356-2.5028344754,3.4618686151-3.4614291616,1.5055678765-1.0784190219,3.0659209628-1.6938004822,5.6510797374-2.7131862433l14.0171035323-5.5283257113-14.014173842-5.5270805929c-2.5861841662-1.0198252147-4.1472696751-1.635499644-5.6544488813-2.7146510885-1.3387220105-.9585946861-2.5034204135-2.1232930892-3.4618686151-3.4620150996-1.0781260529-1.5049086962-1.6932145442-3.0643828754-2.7121608517-5.6480768048l-5.5294975874-14.020399434-5.5270805929,14.014173842c-1.020191426,2.5867701043-1.6358658553,4.1481485822-2.7150172998,5.6548883349-.9583749593,1.3381360724-2.1229268779,2.5026879909-3.4610629503,3.4610629503-1.5067397527,1.0791514445-3.0681182306,1.6948258739-5.6548883349,2.7150172998l-14.0142470842,5.5270805929Z"/>
</svg>