<?xml version="1.0" encoding="UTF-8"?>
<svg id="Livello_1" data-name="Livello 1" xmlns="http://www.w3.org/2000/svg" xmlns:xlink="http://www.w3.org/1999/xlink" viewBox="0 0 90 100">
  <defs>
    <style>
      .cls-1 {
        fill: url(#Nuovo_campione_sfumatura_1);
      }

      .cls-1, .cls-2 {
        stroke-width: 0px;
      }

      .cls-2 {
        fill: url(#Nuovo_campione_sfumatura_1-2);
      }
    </style>
    <linearGradient id="Nuovo_campione_sfumatura_1" data-name="Nuovo campione sfumatura 1" x1="0" y1="50" x2="64.9999511719" y2="50" gradientUnits="userSpaceOnUse">
      <stop offset="0" stop-color="#1ab58a"/>
      <stop offset="1" stop-color="#0e8cad"/>
    </linearGradient>
    <linearGradient id="Nuovo_campione_sfumatura_1-2" data-name="Nuovo campione sfumatura 1" x1="47.5" y1="78.75" x2="90" y2="78.75" gradientTransform="translate(137.5 157.5) rotate(-180)" xlink:href="#Nuovo_campione_sfumatura_1"/>
  </defs>
  <path class="cls-1" d="M40.0000488281,100H4.9999511719c-2.7614501953,0-4.9999511719-2.2385764049-4.9999511719-4.9999560546,0-10.6844342621,4.1608154297-20.7293171185,11.7156738281-28.284256137,7.555078125-7.555085503,17.5999511719-11.7156852692,28.284375-11.7156852692,3.8873291016,0,7.7317382813.5575200757,11.4263671875,1.6573258372,2.6466796875.7876472536,4.1535644531,3.5718784882,3.3657714844,6.2184142758-.7877929687,2.6466822722-3.5720214844,4.1528360868-6.2187011719,3.3660677403-2.7681152344-.823975414-5.6526855469-1.241895744-8.5734375-1.241895744-14.8388671875,0-27.1959228516,10.829746904-29.5833251953,25.0000732423h29.5833251953c2.7614501953,0,4.9999511719,2.2385764049,4.9999511719,4.9999560546s-2.2385009766,4.9999560546-4.9999511719,4.9999560546ZM40.0000488281,50c-13.7851318359,0-25.0000488281-11.2149279443-25.0000488281-25.0000732423C15,11.2149279443,26.2149169922,0,40.0000488281,0c13.7850585938,0,24.9999023437,11.2149279443,24.9999023437,24.9999267577,0,13.785145298-11.21484375,25.0000732423-24.9999023437,25.0000732423ZM40.0000488281,9.9999121093c-8.2710205078,0-15,6.7289860635-15,15.0000146485s6.7289794922,15.0000146485,15,15.0000146485c8.2709472656,0,15-6.7289860635,15-15.0000146485s-6.7290527344-15.0000146485-15-15.0000146485Z"/>
  <path class="cls-2" d="M51.25,82.5h13.75v13.75c0,2.0712890625,1.6787109375,3.75,3.75,3.75s3.75-1.6787109375,3.75-3.75v-13.75h13.75c2.0712890625,0,3.75-1.6787109375,3.75-3.75s-1.6787109375-3.75-3.75-3.75h-13.75v-13.75c0-2.0712890625-1.6787109375-3.75-3.75-3.75s-3.75,1.6787109375-3.75,3.75v13.75h-13.75c-2.0712890625,0-3.75,1.6787109375-3.75,3.75s1.6787109375,3.75,3.75,3.75Z"/>
</svg>