<svg width="42" height="45" viewBox="0 0 42 45" fill="none" xmlns="http://www.w3.org/2000/svg">
<g clip-path="url(#clip0_1255_409)">
<path d="M30.7652 16.2439C33.7202 18.3198 37.3402 19.5413 41.25 19.5413V12.1473C40.5101 12.1474 39.772 12.0716 39.0481 11.9209V17.741C35.1386 17.741 31.5191 16.5196 28.5633 14.4438V29.5328C28.5633 37.0811 22.337 43.1997 14.6569 43.1997C11.7913 43.1997 9.12778 42.3483 6.91522 40.8881C9.44049 43.4257 12.9622 44.9998 16.8583 44.9998C24.5389 44.9998 30.7655 38.8812 30.7655 31.3326L30.7652 16.2439ZM33.4815 8.78424C31.9713 7.1628 30.9798 5.06739 30.7652 2.75083V1.7998H28.6786C29.2038 4.74416 30.9953 7.25963 33.4815 8.78424ZM11.7729 35.0958C10.9291 34.0085 10.4732 32.6785 10.4752 31.311C10.4752 27.8587 13.3231 25.0595 16.8366 25.0595C17.4914 25.0593 18.1423 25.1579 18.7663 25.3525V17.7932C18.0371 17.695 17.3011 17.6533 16.5654 17.6686V23.5523C15.9409 23.3577 15.2897 23.2589 14.6347 23.2595C11.1212 23.2595 8.27351 26.0584 8.27351 29.5111C8.27351 31.9525 9.69698 34.0661 11.7729 35.0958Z" fill="#7F7E7E"/>
<path d="M28.5633 14.4436C31.5191 16.5194 35.1386 17.7408 39.0481 17.7408V11.9207C36.8659 11.4639 34.934 10.3431 33.4815 8.78424C30.9951 7.25948 29.2038 4.744 28.6786 1.7998H23.1977V31.3323C23.1853 34.7751 20.3423 37.5629 16.8363 37.5629C14.7703 37.5629 12.9349 36.595 11.7724 35.0958C9.69667 34.0661 8.2732 31.9523 8.2732 29.5113C8.2732 26.0588 11.1209 23.2597 14.6344 23.2597C15.3076 23.2597 15.9564 23.3627 16.5651 23.5525V17.6687C9.01988 17.8219 2.95172 23.8808 2.95172 31.3324C2.95172 35.0522 4.46283 38.4243 6.91538 40.8882C9.12794 42.3483 11.7914 43.1999 14.6571 43.1999C22.3373 43.1999 28.5635 37.0809 28.5635 29.5328L28.5633 14.4436Z" fill="#FCF8F8"/>
<path d="M39.0481 11.9209V10.3472C37.0803 10.3501 35.1511 9.80848 33.4815 8.78425C34.9594 10.3745 36.9056 11.471 39.0481 11.9209ZM28.6786 1.79997C28.6285 1.51858 28.59 1.23535 28.5633 0.951026V0H20.9957V29.5328C20.9836 32.9752 18.1407 35.7629 14.6344 35.7629C13.605 35.7629 12.6331 35.5228 11.7724 35.0961C12.9349 36.5952 14.7703 37.5629 16.8363 37.5629C20.342 37.5629 23.1855 34.7755 23.1977 31.3326V1.79997H28.6786ZM16.5654 17.6689V15.9935C15.933 15.9086 15.2955 15.866 14.6572 15.8663C6.97632 15.8661 0.75 21.9851 0.75 29.5328C0.75 34.2647 3.19705 38.435 6.91554 40.8881C4.46299 38.4244 2.95188 35.0521 2.95188 31.3324C2.95188 23.881 9.01988 17.8221 16.5654 17.6689Z" fill="#BFBEBE"/>
</g>
<defs>
<clipPath id="clip0_1255_409">
<rect width="40.5" height="45" fill="white" transform="translate(0.75)"/>
</clipPath>
</defs>
</svg>
